<svg xmlns="http://www.w3.org/2000/svg" viewBox="0 0 25.231 25.231">
  <defs>
    <style>
      .cls-1 {
        fill: #767676;
      }

      .cls-2 {
        fill: #fff;
      }
    </style>
  </defs>
  <g id="google_" data-name="google+" transform="translate(-1035.036 -1132)">
    <path id="Path_1026" data-name="Path 1026" class="cls-1" d="M25.231,12.616A12.616,12.616,0,1,0,12.616,25.231,12.616,12.616,0,0,0,25.231,12.616Zm-24.084,0A11.469,11.469,0,1,1,12.616,24.084,11.468,11.468,0,0,1,1.147,12.616Z" transform="translate(1035.036 1132)"/>
    <rect id="rectangle-16" class="cls-1" width="19.338" height="19.338" rx="9.669" transform="translate(1038 1135)"/>
    <path id="Path_1024" data-name="Path 1024" class="cls-2" d="M147.357,160.309a2.221,2.221,0,0,0-1.071-1.786l-.459-.357a.7.7,0,0,1-.331-.548.9.9,0,0,1,.357-.625,2.078,2.078,0,0,0,.166-3.533h.79l.816-.459H145a3.477,3.477,0,0,0-2.283.7,2.293,2.293,0,0,0-.816,1.709,2.017,2.017,0,0,0,2.117,2c.128,0,.268-.013.409-.025a1.146,1.146,0,0,0-.127.5,1.339,1.339,0,0,0,.383.867,5.488,5.488,0,0,0-2.436.587,1.836,1.836,0,0,0-.982,1.556c0,.944.893,1.824,2.743,1.824C146.2,162.72,147.357,161.507,147.357,160.309Zm-2.743-3.252c-1.1,0-1.595-1.416-1.595-2.27a1.472,1.472,0,0,1,.281-.944,1.193,1.193,0,0,1,.893-.422c1.059,0,1.607,1.429,1.607,2.347a1.288,1.288,0,0,1-.319.932A1.309,1.309,0,0,1,144.615,157.057Zm.013,5.127c-1.365,0-2.245-.65-2.245-1.556a1.434,1.434,0,0,1,1.1-1.313,5.113,5.113,0,0,1,1.339-.2,2.013,2.013,0,0,1,.293.013c.97.688,1.39,1.033,1.39,1.684C146.5,161.6,145.852,162.184,144.628,162.184Z" transform="translate(902.559 986.28)"/>
    <path id="Path_1025" data-name="Path 1025" class="cls-2" d="M353.068,249.235h1.381v1.38h.69v-1.38h1.38v-.69h-1.38v-1.38h-.69v1.38h-1.381Z" transform="translate(696.963 894.876)"/>
  </g>
</svg>
