<svg xmlns="http://www.w3.org/2000/svg" viewBox="0 0 34.674 34.673"><defs><style>.a{fill:#dd4b39;}.b{fill:#fff;}</style></defs><g transform="translate(0 0)"><g transform="translate(0 0)"><circle class="a" cx="17.337" cy="17.337" r="17.337"/><g transform="translate(8.256 11.558)"><path class="b" d="M6.451,89.615H9.323A3.652,3.652,0,1,1,8.332,85.7a.4.4,0,0,0,.538,0L9.925,84.7a.394.394,0,0,0,0-.573A5.86,5.86,0,0,0,6,82.521a5.882,5.882,0,1,0,5.755,6.212c0-.039.008-1.35.008-1.35H6.451a.394.394,0,0,0-.394.394v1.444A.394.394,0,0,0,6.451,89.615Z" transform="translate(0 -82.52)"/><path class="b" d="M327.5,164.965v-1.411a.345.345,0,0,0-.345-.345h-1.188a.345.345,0,0,0-.345.345v1.411h-1.411a.345.345,0,0,0-.345.345V166.5a.345.345,0,0,0,.345.345h1.411v1.411a.345.345,0,0,0,.345.345h1.188a.345.345,0,0,0,.345-.345v-1.411h1.411a.345.345,0,0,0,.345-.345V165.31a.345.345,0,0,0-.345-.345Z" transform="translate(-310.866 -159.971)"/></g></g></g></svg>