<svg xmlns="http://www.w3.org/2000/svg" viewBox="0 0 34.674 34.673"><defs><style>.a{fill:#55acee;}.b{fill:#fff;}</style></defs><g transform="translate(0 0)"><g transform="translate(0 0)"><circle class="a" cx="17.337" cy="17.337" r="17.337"/><path class="b" d="M60.359,109.913A11.257,11.257,0,0,0,77.632,100.4q0-.233-.009-.463a8.845,8.845,0,0,0,1.956-2.008,9.129,9.129,0,0,1-2.235.58h-.007l.006,0a4.184,4.184,0,0,0,1.718-2.192,13.711,13.711,0,0,1-1.917.8c-.185.061-.379.122-.579.178a3.949,3.949,0,0,0-6.73,3.592,11.894,11.894,0,0,1-8.106-4.1s-1.888,2.577,1.125,5.227a4.058,4.058,0,0,1-1.706-.509,3.753,3.753,0,0,0,3.122,3.92,3.614,3.614,0,0,1-1.742.073,3.893,3.893,0,0,0,3.63,2.758,7.586,7.586,0,0,1-5.8,1.657Z" transform="translate(-52.928 -86.134)"/></g></g></svg>