<svg xmlns="http://www.w3.org/2000/svg" viewBox="0 0 25.231 25.231">
  <defs>
    <style>
      .cls-1 {
        fill: #767676;
      }

      .cls-2 {
        fill: #fff;
      }
    </style>
  </defs>
  <g id="twitter" transform="translate(-1067 -1128)">
    <path id="Path_1028" data-name="Path 1028" class="cls-1" d="M25.231,12.616A12.616,12.616,0,1,0,12.616,25.231,12.616,12.616,0,0,0,25.231,12.616Zm-24.084,0A11.469,11.469,0,1,1,12.616,24.084,11.468,11.468,0,0,1,1.147,12.616Z" transform="translate(1067 1128)"/>
    <rect id="rectangle-16" class="cls-1" width="19.338" height="19.338" rx="9.669" transform="translate(1070 1131)"/>
    <path id="Path_1027" data-name="Path 1027" class="cls-2" d="M150.447,167.254c0-.1,0-.191-.006-.285a4.315,4.315,0,0,0,1.048-1.126,4.022,4.022,0,0,1-1.206.33,2.154,2.154,0,0,0,.923-1.206,4.031,4.031,0,0,1-1.333.514,2.088,2.088,0,0,0-1.532-.723,2.121,2.121,0,0,0-2.1,2.188,2.335,2.335,0,0,0,.054.507,5.91,5.91,0,0,1-4.327-2.39,2.354,2.354,0,0,0,.649,3,2.009,2.009,0,0,1-.951-.291v.029a2.229,2.229,0,0,0,1.684,2.209,1.989,1.989,0,0,1-.553.075,1.918,1.918,0,0,1-.395-.043,2.133,2.133,0,0,0,1.96,1.562,4.051,4.051,0,0,1-2.606.949,4,4,0,0,1-.5-.032,5.662,5.662,0,0,0,3.218,1.009A6.1,6.1,0,0,0,150.447,167.254Z" transform="translate(933.76 971.472)"/>
  </g>
</svg>
